<svg xmlns="http://www.w3.org/2000/svg" width="59" height="60" viewBox="0 0 59 60"><g><g><path fill="#8f0c3d" d="M2.688 16.969c0-.451.366-.817.817-.817h51.81c.45 0 .816.366.816.817v2.471c0 .45-.366.816-.816.816H3.505a.817.817 0 0 1-.817-.816zM29.41 1.727l24.315 12.781H5.095zm25.132 23.64c0 .362-.293.654-.653.654h-8.106a.653.653 0 0 1-.653-.653v-.61h9.417zm-7.24 23.265V27.638h5.067v20.978zm7.24 2.88h-9.418v-.593c0-.361.293-.654.654-.654h8.127a.653.653 0 0 1 .637.637zm1.589 6.956H2.688v-1.6c0-.466.378-.844.844-.844h51.755c.46 0 .835.368.844.828zm-51.853-7.55c0-.36.292-.653.653-.653h8.11c.362 0 .654.293.654.654v.593H4.278zm7.24-23.264v20.962H6.455V27.638zm-7.24-2.286v-.012-.599h9.417v.594c0 .361-.292.654-.654.654H4.915a.653.653 0 0 1-.637-.648zm9.417 27.76v1.247H4.278v-1.246zm19.77-2.879c.36 0 .653.292.653.653v.594h-9.417v-.594c0-.36.293-.653.653-.653zm-1.519-22.611v20.978H26.88V27.638zm-6.592-1.633a.653.653 0 0 1-.653-.654v-.593h9.417v.593c0 .361-.292.654-.653.654zm8.775 27.124v1.246h-9.428v-1.246zm20.423 0v1.246h-9.428v-1.246zm-9.416-30.004v-1.258h9.416v1.247zm.544 4.502v21a2.287 2.287 0 0 0-2.178 2.275v3.473h-7.751v-3.473a2.287 2.287 0 0 0-2.177-2.275V27.62a2.286 2.286 0 0 0 2.177-2.275v-3.479h7.74v3.474a2.286 2.286 0 0 0 2.178 2.28zm-20.968-4.502v-1.258h9.417v1.247zm.544 4.502v21a2.286 2.286 0 0 0-2.177 2.275v3.473h-7.752v-3.473a2.286 2.286 0 0 0-2.177-2.275V27.62a2.286 2.286 0 0 0 2.177-2.275v-3.479h7.74v3.474a2.287 2.287 0 0 0 2.179 2.28zM4.29 23.125v-1.258h9.417v1.247zm-3.185-6.532a2.43 2.43 0 0 0-.038.36v2.47a2.45 2.45 0 0 0 1.59 2.287v3.636a2.286 2.286 0 0 0 2.177 2.275v21.006a2.286 2.286 0 0 0-2.177 2.275v3.626a2.477 2.477 0 0 0-1.59 2.307v2.418c0 .45.366.816.817.816h55.065c.45 0 .816-.366.816-.816v-2.418a2.477 2.477 0 0 0-1.59-2.307V50.88a2.286 2.286 0 0 0-2.177-2.276V27.621a2.286 2.286 0 0 0 2.178-2.275V21.71a2.45 2.45 0 0 0 1.589-2.287V16.97a2.377 2.377 0 0 0-.038-.36.813.813 0 0 0 .659-1.486L29.79.094a.817.817 0 0 0-.762 0L.435 15.107a.817.817 0 0 0 .67 1.486z"/></g></g></svg>