<svg xmlns="http://www.w3.org/2000/svg" width="465" height="498" viewBox="0 0 465 498"><g><g ><path fill="#fff" d="M32.65 34.659h135.786c49.244 0 109.881 9.323 139.94 48.2 21.762 27.988 26.954 65.308 26.954 100.542 0 34.736-5.192 72.048-26.954 100.558-30.059 38.347-90.696 48.193-139.94 48.193H32.651zM0 366.88h168.436c130.095 0 201.1-56.49 201.1-182.957 0-40.947-7.775-87.07-34.72-121.798C296.974 12.889 227.003-.07 168.436-.07H0z"/></g><g ><path fill="#fff" d="M464.297 276.19c0 110.395-26.946 221.818-171.547 221.818-144.083 0-169.992-112.466-169.992-221.818V131.065h32.65V276.19c0 50.792 7.246 124.389 46.637 159.11 25.917 22.804 56.498 29.022 91.226 29.022 34.72 0 64.256-6.218 90.696-29.023 39.904-34.206 46.644-108.838 46.644-159.11V131.066h33.686z"/></g><g ><path fill="#fff" d="M94.188 337.978H61.533V28.832h32.654"/></g><g ><path fill="#fff" d="M155.4 337.978h-32.651V28.832h32.65"/></g></g></svg>