<svg xmlns="http://www.w3.org/2000/svg" width="108" height="96" viewBox="0 0 108 96"><g><g><g><g><path fill="#e5e5e5" d="M4.314 2.158a2.158 2.158 0 1 1 0 0z"/></g><g><path fill="#e5e5e5" d="M4.314 20.494a2.156 2.156 0 1 1-4.312.004 2.156 2.156 0 0 1 4.312-.004z"/></g><g><path fill="#e5e5e5" d="M4.314 38.832a2.158 2.158 0 1 1 0 0z"/></g><g><path fill="#e5e5e5" d="M0 57.168a2.157 2.157 0 1 1 4.314 0 2.157 2.157 0 0 1-4.314 0z"/></g><g><path fill="#e5e5e5" d="M4.314 75.506c0 1.19-.964 2.156-2.158 2.156a2.155 2.155 0 0 1-2.155-2.156 2.156 2.156 0 1 1 4.313 0z"/></g><g><path fill="#e5e5e5" d="M4.314 93.842a2.158 2.158 0 1 1 0 0z"/></g></g><g><g><path fill="#e5e5e5" d="M21.572 2.158a2.158 2.158 0 1 1 0 0z"/></g><g><path fill="#e5e5e5" d="M21.572 20.494a2.156 2.156 0 1 1-4.313.004 2.156 2.156 0 0 1 4.313-.004z"/></g><g><path fill="#e5e5e5" d="M21.572 38.832a2.158 2.158 0 1 1 0 0z"/></g><g><path fill="#e5e5e5" d="M21.572 57.168a2.158 2.158 0 1 1-4.314 0c0-1.19.965-2.156 2.156-2.156 1.193 0 2.158.965 2.158 2.156z"/></g><g><path fill="#e5e5e5" d="M21.572 75.506c0 1.19-.965 2.156-2.158 2.156a2.155 2.155 0 0 1-2.156-2.156 2.156 2.156 0 1 1 4.314 0z"/></g><g><path fill="#e5e5e5" d="M21.572 93.842a2.158 2.158 0 1 1 0 0z"/></g></g><g><g><path fill="#e5e5e5" d="M38.83 2.158a2.158 2.158 0 1 1-4.315.002 2.158 2.158 0 0 1 4.315-.002z"/></g><g><path fill="#e5e5e5" d="M38.83 20.494a2.156 2.156 0 1 1-4.314 0c0-1.19.965-2.156 2.158-2.156 1.191 0 2.156.965 2.156 2.156z"/></g><g><path fill="#e5e5e5" d="M38.83 38.832a2.157 2.157 0 1 1-4.315.002 2.157 2.157 0 0 1 4.315-.002z"/></g><g><path fill="#e5e5e5" d="M34.516 57.168a2.157 2.157 0 1 1 4.314 0 2.157 2.157 0 0 1-4.314 0z"/></g><g><path fill="#e5e5e5" d="M38.83 75.506c0 1.19-.965 2.156-2.156 2.156a2.156 2.156 0 1 1 0-4.314c1.191 0 2.156.965 2.156 2.158z"/></g><g><path fill="#e5e5e5" d="M38.83 93.842a2.158 2.158 0 1 1-4.315.001 2.158 2.158 0 0 1 4.315-.001z"/></g></g><g><g><path fill="#e5e5e5" d="M56.088 2.158a2.158 2.158 0 1 1-4.315.002 2.158 2.158 0 0 1 4.315-.002z"/></g><g><path fill="#e5e5e5" d="M56.088 20.494a2.156 2.156 0 1 1-4.314 0c0-1.19.965-2.156 2.158-2.156 1.19 0 2.156.965 2.156 2.156z"/></g><g><path fill="#e5e5e5" d="M56.088 38.832a2.158 2.158 0 1 1-4.315.002 2.158 2.158 0 0 1 4.315-.002z"/></g><g><path fill="#e5e5e5" d="M56.088 57.168a2.158 2.158 0 1 1-4.315.001 2.158 2.158 0 0 1 4.315-.001z"/></g><g><path fill="#e5e5e5" d="M56.088 75.506c0 1.19-.965 2.156-2.156 2.156a2.156 2.156 0 1 1 0-4.314c1.19 0 2.156.965 2.156 2.158z"/></g><g><path fill="#e5e5e5" d="M56.088 93.842a2.158 2.158 0 1 1-4.315.001 2.158 2.158 0 0 1 4.315-.001z"/></g></g><g><g><path fill="#e5e5e5" d="M73.346 2.158a2.158 2.158 0 1 1-4.316.002 2.158 2.158 0 0 1 4.316-.002z"/></g><g><path fill="#e5e5e5" d="M73.346 20.494a2.156 2.156 0 1 1-4.314 0c0-1.19.964-2.156 2.158-2.156 1.19 0 2.156.965 2.156 2.156z"/></g><g><path fill="#e5e5e5" d="M73.346 38.832a2.158 2.158 0 1 1-4.316.002 2.158 2.158 0 0 1 4.316-.002z"/></g><g><path fill="#e5e5e5" d="M73.346 57.168a2.158 2.158 0 1 1-4.316.001 2.158 2.158 0 0 1 4.316-.001z"/></g><g><path fill="#e5e5e5" d="M73.346 75.506c0 1.19-.965 2.156-2.156 2.156a2.156 2.156 0 1 1 0-4.314c1.19 0 2.156.965 2.156 2.158z"/></g><g><path fill="#e5e5e5" d="M73.346 93.842a2.158 2.158 0 1 1-4.316.001 2.158 2.158 0 0 1 4.316-.001z"/></g></g><g><g><path fill="#e5e5e5" d="M90.603 2.158a2.158 2.158 0 1 1-4.315.002 2.158 2.158 0 0 1 4.315-.002z"/></g><g><path fill="#e5e5e5" d="M90.603 20.494a2.156 2.156 0 1 1-4.313 0c0-1.19.964-2.156 2.158-2.156 1.19 0 2.155.965 2.155 2.156z"/></g><g><path fill="#e5e5e5" d="M90.603 38.832a2.158 2.158 0 1 1-4.315.002 2.158 2.158 0 0 1 4.315-.002z"/></g><g><path fill="#e5e5e5" d="M86.29 57.168a2.157 2.157 0 1 1 4.314 0 2.157 2.157 0 0 1-4.314 0z"/></g><g><path fill="#e5e5e5" d="M90.603 75.506a2.156 2.156 0 1 1-2.155-2.158c1.19 0 2.155.965 2.155 2.158z"/></g><g><path fill="#e5e5e5" d="M90.603 93.842a2.158 2.158 0 1 1-4.315.001 2.158 2.158 0 0 1 4.315-.001z"/></g></g><g><g><path fill="#e5e5e5" d="M107.861 2.158a2.158 2.158 0 1 1-4.315.002 2.158 2.158 0 0 1 4.315-.002z"/></g><g><path fill="#e5e5e5" d="M107.861 20.494a2.156 2.156 0 1 1-4.314 0 2.158 2.158 0 0 1 4.314 0z"/></g><g><path fill="#e5e5e5" d="M107.861 38.832a2.158 2.158 0 1 1-4.315.002 2.158 2.158 0 0 1 4.315-.002z"/></g><g><path fill="#e5e5e5" d="M107.861 57.168a2.158 2.158 0 1 1-4.315.001 2.158 2.158 0 0 1 4.315-.001z"/></g><g><path fill="#e5e5e5" d="M107.861 75.506a2.158 2.158 0 1 1-2.155-2.158c1.19 0 2.155.965 2.155 2.158z"/></g><g><path fill="#e5e5e5" d="M107.861 93.842a2.158 2.158 0 1 1-4.315.001 2.158 2.158 0 0 1 4.315-.001z"/></g></g></g></g></svg>