<svg xmlns="http://www.w3.org/2000/svg" width="92" height="98" viewBox="0 0 92 98"><g><g><g><g><path fill="#fff" d="M6.427 6.794h26.727c9.694 0 21.63 1.836 27.546 9.488 4.284 5.51 5.306 12.855 5.306 19.79 0 6.838-1.022 14.183-5.306 19.794-5.916 7.549-17.852 9.487-27.546 9.487H6.427zM0 72.188h33.154c25.608 0 39.585-11.119 39.585-36.013 0-8.06-1.53-17.138-6.835-23.974C58.456 2.509 44.683-.042 33.154-.042H0z"/></g></g><g><g><path fill="#fff" d="M91.392 54.337C91.392 76.067 86.09 98 57.625 98c-28.36 0-33.46-22.138-33.46-43.663V25.771h6.426v28.566c0 9.998 1.426 24.485 9.18 31.32 5.101 4.488 11.12 5.712 17.957 5.712 6.834 0 12.648-1.224 17.852-5.712 7.855-6.734 9.182-21.424 9.182-31.32V25.771h6.63z"/></g></g><g><path fill="#fff" d="M18.541 66.5h-6.427V5.646h6.427"/></g><g><path fill="#fff" d="M30.59 66.5h-6.426V5.646h6.427"/></g></g></g></svg>