<svg xmlns="http://www.w3.org/2000/svg" width="16" height="16" viewBox="0 0 16 16"><g><g><path fill="#8f0c3d" d="M14.34 7.878c0-1.147.094-3.607-.317-4.645a2.659 2.659 0 0 0-1.498-1.497c-1.033-.408-3.498-.317-4.644-.317s-3.607-.095-4.644.317A2.659 2.659 0 0 0 1.74 3.233c-.407 1.034-.316 3.498-.316 4.645 0 1.146-.095 3.607.316 4.644a2.659 2.659 0 0 0 1.498 1.497c1.034.408 3.498.317 4.644.317s3.607.095 4.644-.317a2.659 2.659 0 0 0 1.498-1.497c.411-1.034.317-3.498.317-4.644zm1.364 3.248c-.064 1.262-.352 2.38-1.273 3.301-.921.925-2.04 1.213-3.301 1.273-1.301.074-5.2.074-6.5 0-1.263-.063-2.377-.352-3.302-1.273-.924-.92-1.213-2.039-1.273-3.301-.073-1.3-.073-5.2 0-6.5.064-1.263.349-2.38 1.273-3.302C2.253.404 3.371.115 4.63.055c1.301-.074 5.2-.074 6.5 0 1.263.064 2.38.352 3.302 1.273.925.921 1.213 2.039 1.273 3.301.073 1.3.073 5.196 0 6.497zm-2.676-7.453a.94.94 0 0 1-.942.942.942.942 0 1 1 .942-.942zm-2.52 4.205A2.629 2.629 0 0 0 7.88 5.25a2.629 2.629 0 0 0-2.626 2.627 2.63 2.63 0 0 0 2.626 2.626 2.63 2.63 0 0 0 2.627-2.626zm1.413 0a4.033 4.033 0 0 1-4.04 4.039 4.033 4.033 0 0 1-4.04-4.04 4.033 4.033 0 0 1 4.04-4.039 4.033 4.033 0 0 1 4.04 4.04z"/></g></g></svg>