<svg xmlns="http://www.w3.org/2000/svg" width="22" height="17" viewBox="0 0 22 17"><g><g><path fill="#fff" d="M21.098 14.677c0 .085-.027.161-.048.24-1.226-1.17-4.901-4.655-7.276-6.694a3698.1 3698.1 0 0 0 7.273-6.642c.024.082.051.164.051.254zm-.917.917H1.835c-.074 0-.139-.025-.207-.041 1.266-1.208 4.965-4.713 7.299-6.709l.8.725c.379.341.821.521 1.28.521.46 0 .903-.18 1.28-.52l.802-.726c2.333 1.996 6.032 5.501 7.299 6.709-.069.016-.134.041-.207.041zM.917 1.834c0-.09.027-.17.052-.253 1.215 1.113 4.89 4.475 7.273 6.642-2.375 2.04-6.05 5.525-7.276 6.693-.022-.078-.049-.154-.049-.239zM20.181.918c.068 0 .127.025.19.039a2459.783 2459.783 0 0 1-8.698 7.932c-.144.13-.376.285-.665.285-.29 0-.522-.155-.666-.285-1.843-1.66-7.11-6.479-8.698-7.932.063-.014.123-.039.19-.039zm0-.917H1.835A1.836 1.836 0 0 0 0 1.835v12.842c0 1.012.823 1.835 1.835 1.835H20.18a1.836 1.836 0 0 0 1.835-1.835V1.835A1.836 1.836 0 0 0 20.18 0z"/></g></g></svg>