<svg xmlns="http://www.w3.org/2000/svg" width="18" height="14" viewBox="0 0 18 14"><g><g><path fill="#ffffff" d="M6.42 8.045C1.754 4.659 1.4 4.36.323 3.52A.846.846 0 0 1 0 2.855v-.667C0 1.256.756.5 1.687.5h14.625C17.244.5 18 1.256 18 2.188v.667c0 .26-.12.507-.323.665-1.076.844-1.431 1.139-6.097 4.525-.59.428-1.764 1.47-2.58 1.455-.816.014-1.99-1.027-2.58-1.455zm11.239-3.087a.212.212 0 0 1 .341.165v7.19c0 .931-.756 1.687-1.688 1.687H1.687A1.688 1.688 0 0 1 0 12.312V5.127c0-.176.2-.275.341-.166.788.612 1.832 1.389 5.418 3.994.741.541 1.993 1.68 3.241 1.674 1.255.01 2.531-1.154 3.245-1.674C15.83 6.35 16.87 5.57 17.659 4.958z"/></g></g></svg>