<svg xmlns="http://www.w3.org/2000/svg" width="188" height="63" viewBox="0 0 188 63"><g><g><path fill="#8f0c3d" d="M88.942 42.901a4.959 4.959 0 1 1 9.918 0 4.959 4.959 0 0 1-9.918 0zm6.182 19.195c9.007-13.056 10.678-14.396 10.678-19.195 0-6.573-5.328-11.901-11.9-11.901C87.327 31 82 36.328 82 42.901c0 4.799 1.672 6.139 10.678 19.195a1.488 1.488 0 0 0 2.446 0z"/></g><g><path fill="#8f0c3d" d="M12 25C5.373 25 0 19.627 0 13v-1C0 5.373 5.373 0 12 0h164c6.627 0 12 5.373 12 12v1c0 6.627-5.373 12-12 12z"/></g><g><g><text dominant-baseline="text-before-edge" style="line-height:17px;font-kerning:normal; -webkit-transform=translate(17px, 10px); " fill="#fff" font-family="'Ubuntu','Ubuntu-Regular'" font-size="14" font-style="none" font-weight="400" transform="translate(17 4)" ><tspan>Jūsų apygarda priklauso</tspan></text></g></g></g></svg>