<?xml version="1.0" encoding="utf-8"?>
<!-- Generator: Adobe Illustrator 23.0.4, SVG Export Plug-In . SVG Version: 6.00 Build 0)  -->
<svg version="1.1" id="Layer_1" xmlns="http://www.w3.org/2000/svg" xmlns:xlink="http://www.w3.org/1999/xlink" x="0px" y="0px"
	 viewBox="0 0 188 62.7" style="enable-background:new 0 0 188 62.7;" xml:space="preserve">
<style type="text/css">
	.st0{fill:#8F0C3D;}
	.st1{enable-background:new    ;}
	.st2{fill:#FFFFFF;}
</style>
<g id="Group_320" transform="translate(-743 -2526)">
	<path id="Icon_awesome-map-marker-alt" class="st0" d="M835.7,2588.1c-9-13.1-10.7-14.4-10.7-19.2c0-6.6,5.3-11.9,11.9-11.9
		c6.6,0,11.9,5.3,11.9,11.9c0,4.8-1.7,6.1-10.7,19.2c-0.5,0.7-1.4,0.8-2.1,0.4C835.9,2588.4,835.8,2588.2,835.7,2588.1L835.7,2588.1
		z M836.9,2573.9c2.7,0,5-2.2,5-5s-2.2-5-5-5c-2.7,0-5,2.2-5,5S834.2,2573.9,836.9,2573.9C836.9,2573.9,836.9,2573.9,836.9,2573.9z"
		/>
	<path id="Rectangle_250" class="st0" d="M755.5,2526h163c6.9,0,12.5,5.6,12.5,12.5l0,0c0,6.9-5.6,12.5-12.5,12.5h-163
		c-6.9,0-12.5-5.6-12.5-12.5l0,0C743,2531.6,748.6,2526,755.5,2526z"/>
	<g class="st1">
		<path class="st2" d="M765.9,2539.9c0,0.5,0,0.9-0.1,1.3c-0.1,0.4-0.3,0.8-0.5,1.1c-0.2,0.3-0.6,0.5-1,0.7
			c-0.4,0.2-0.9,0.3-1.6,0.3c-0.3,0-0.6,0-0.9-0.1c-0.3-0.1-0.5-0.1-0.7-0.2c-0.2-0.1-0.4-0.2-0.6-0.3c-0.2-0.1-0.3-0.2-0.4-0.3
			l0.5-1.1c0.2,0.1,0.5,0.3,0.8,0.4c0.3,0.2,0.7,0.2,1.2,0.2c0.7,0,1.2-0.2,1.5-0.5s0.5-0.9,0.5-1.8v-6.5h1.4V2539.9z"/>
		<path class="st2" d="M773.9,2542.8c-0.3,0.1-0.7,0.2-1.2,0.2c-0.5,0.1-1.1,0.1-1.7,0.1c-0.6,0-1-0.1-1.4-0.2
			c-0.4-0.2-0.7-0.4-0.9-0.7s-0.4-0.7-0.5-1.1s-0.2-0.9-0.2-1.4v-4.1h1.3v3.8c0,0.9,0.1,1.5,0.4,1.9c0.3,0.4,0.8,0.6,1.4,0.6
			c0.1,0,0.3,0,0.4,0c0.1,0,0.3,0,0.4,0s0.2,0,0.4,0s0.2,0,0.2,0v-6.1h1.3V2542.8z M769,2533h4v1h-4V2533z"/>
		<path class="st2" d="M777.8,2542.1c0.5,0,0.9-0.1,1.2-0.2c0.3-0.1,0.4-0.4,0.4-0.7c0-0.3-0.1-0.6-0.4-0.8s-0.7-0.4-1.2-0.6
			c-0.3-0.1-0.5-0.2-0.8-0.3c-0.3-0.1-0.5-0.3-0.7-0.4c-0.2-0.2-0.3-0.3-0.4-0.6c-0.1-0.2-0.2-0.5-0.2-0.8c0-0.6,0.2-1.2,0.7-1.5
			c0.5-0.4,1.1-0.6,1.9-0.6c0.2,0,0.4,0,0.6,0c0.2,0,0.4,0.1,0.6,0.1c0.2,0,0.3,0.1,0.5,0.1c0.1,0,0.2,0.1,0.3,0.1l-0.2,1.1
			c-0.1-0.1-0.4-0.2-0.7-0.2c-0.3-0.1-0.7-0.1-1.1-0.1c-0.4,0-0.7,0.1-1,0.2c-0.3,0.1-0.4,0.4-0.4,0.7c0,0.2,0,0.3,0.1,0.4
			s0.2,0.2,0.3,0.3c0.1,0.1,0.3,0.2,0.5,0.3c0.2,0.1,0.4,0.2,0.7,0.3c0.3,0.1,0.7,0.3,0.9,0.4c0.3,0.1,0.5,0.3,0.7,0.4
			c0.2,0.2,0.3,0.4,0.4,0.6s0.2,0.5,0.2,0.9c0,0.7-0.2,1.2-0.7,1.5c-0.5,0.3-1.2,0.5-2.1,0.5c-0.6,0-1.1-0.1-1.5-0.2
			c-0.4-0.1-0.6-0.2-0.7-0.2l0.2-1.1c0.1,0.1,0.4,0.1,0.7,0.3C776.9,2542,777.3,2542.1,777.8,2542.1z"/>
		<path class="st2" d="M788.2,2542.8c-0.1,0.1-0.2,0.2-0.4,0.3s-0.3,0.3-0.4,0.4c-0.1,0.1-0.2,0.3-0.3,0.4c-0.1,0.1-0.1,0.2-0.1,0.4
			c0,0.3,0.2,0.4,0.6,0.4c0.1,0,0.2,0,0.3,0c0.1,0,0.2,0,0.3-0.1l0.1,0.9c-0.1,0-0.2,0.1-0.4,0.1c-0.2,0-0.3,0-0.5,0
			c-0.5,0-0.9-0.1-1.2-0.3s-0.4-0.5-0.4-0.8c0-0.2,0.1-0.4,0.2-0.6c0.1-0.2,0.3-0.4,0.4-0.6c0-0.1,0.1-0.1,0.2-0.2
			c0.1-0.1,0.1-0.1,0.2-0.2c-0.2,0-0.4,0.1-0.7,0.1c-0.2,0-0.5,0-0.7,0c-0.6,0-1-0.1-1.4-0.2c-0.4-0.2-0.7-0.4-0.9-0.7
			s-0.4-0.7-0.5-1.1s-0.2-0.9-0.2-1.4v-4.1h1.3v3.8c0,0.9,0.1,1.5,0.4,1.9c0.3,0.4,0.8,0.6,1.4,0.6c0.1,0,0.3,0,0.4,0
			c0.1,0,0.3,0,0.4,0s0.2,0,0.4,0s0.2,0,0.2,0v-6.1h1.3V2542.8z"/>
		<path class="st2" d="M796,2535.5c0.5,0,1,0.1,1.3,0.2c0.4,0.1,0.6,0.3,0.9,0.6c0.2,0.2,0.4,0.5,0.5,0.9s0.1,0.7,0.1,1.1v4.5
			c-0.1,0-0.3,0-0.5,0.1c-0.2,0-0.4,0.1-0.7,0.1s-0.5,0.1-0.8,0.1s-0.6,0-0.9,0c-0.4,0-0.8,0-1.1-0.1s-0.6-0.2-0.9-0.4
			s-0.4-0.4-0.6-0.7s-0.2-0.7-0.2-1.1c0-0.4,0.1-0.7,0.2-1c0.2-0.3,0.4-0.5,0.7-0.7c0.3-0.2,0.6-0.3,1-0.4c0.4-0.1,0.8-0.1,1.2-0.1
			c0.1,0,0.3,0,0.4,0c0.1,0,0.3,0,0.4,0.1s0.2,0,0.3,0.1s0.2,0,0.2,0v-0.4c0-0.2,0-0.4-0.1-0.6c0-0.2-0.1-0.4-0.3-0.6
			c-0.1-0.2-0.3-0.3-0.5-0.4c-0.2-0.1-0.5-0.1-0.8-0.1c-0.4,0-0.8,0-1.1,0.1c-0.3,0.1-0.6,0.1-0.7,0.2l-0.2-1.1
			c0.2-0.1,0.4-0.1,0.8-0.2C795.1,2535.6,795.6,2535.5,796,2535.5z M796.1,2542.1c0.3,0,0.6,0,0.8,0c0.2,0,0.4,0,0.6-0.1v-2.2
			c-0.1,0-0.2-0.1-0.5-0.1c-0.2,0-0.5,0-0.8,0c-0.2,0-0.4,0-0.6,0c-0.2,0-0.4,0.1-0.6,0.2c-0.2,0.1-0.3,0.2-0.5,0.4
			c-0.1,0.2-0.2,0.4-0.2,0.6c0,0.5,0.1,0.8,0.4,1C795.2,2542,795.6,2542.1,796.1,2542.1z"/>
		<path class="st2" d="M807.4,2539.4c0,0.6-0.1,1.1-0.2,1.5s-0.4,0.9-0.6,1.2c-0.3,0.3-0.6,0.6-1,0.8c-0.4,0.2-0.9,0.3-1.4,0.3
			c-0.4,0-0.8-0.1-1.1-0.2c-0.3-0.1-0.6-0.2-0.7-0.3v2.9H801v-9.6c0.3-0.1,0.7-0.2,1.2-0.2s1-0.1,1.6-0.1c0.6,0,1.1,0.1,1.5,0.3
			c0.4,0.2,0.8,0.4,1.1,0.8c0.3,0.3,0.6,0.7,0.7,1.2S807.4,2538.8,807.4,2539.4z M806,2539.4c0-0.8-0.2-1.5-0.6-2s-1-0.7-1.7-0.7
			c-0.4,0-0.7,0-0.9,0c-0.2,0-0.4,0.1-0.5,0.1v4.6c0.2,0.1,0.4,0.3,0.7,0.4s0.6,0.2,1,0.2c0.4,0,0.7-0.1,1-0.2
			c0.3-0.1,0.5-0.3,0.7-0.6c0.2-0.2,0.3-0.5,0.4-0.8S806,2539.7,806,2539.4z"/>
		<path class="st2" d="M808.2,2544.4c0.1,0,0.2,0.1,0.4,0.1c0.2,0,0.3,0.1,0.5,0.1c0.5,0,0.9-0.1,1.2-0.3c0.3-0.2,0.6-0.6,0.8-1.1
			c-0.6-1.1-1.1-2.3-1.6-3.6c-0.5-1.3-0.9-2.5-1.3-3.8h1.4c0.1,0.4,0.2,0.9,0.4,1.4c0.1,0.5,0.3,1,0.5,1.5s0.4,1,0.6,1.5
			c0.2,0.5,0.4,1,0.6,1.5c0.4-1,0.7-2,0.9-2.9c0.3-1,0.5-2,0.7-3h1.3c-0.3,1.4-0.7,2.7-1.1,4s-0.9,2.4-1.3,3.5
			c-0.2,0.4-0.4,0.8-0.6,1.1c-0.2,0.3-0.4,0.6-0.7,0.7c-0.2,0.2-0.5,0.3-0.8,0.4c-0.3,0.1-0.6,0.1-1,0.1c-0.1,0-0.2,0-0.3,0
			c-0.1,0-0.2,0-0.3-0.1c-0.1,0-0.2,0-0.3-0.1c-0.1,0-0.2-0.1-0.2-0.1L808.2,2544.4z"/>
		<path class="st2" d="M820.5,2542.3c-0.1,0.1-0.3,0.2-0.7,0.3c-0.3,0.1-0.7,0.2-1.1,0.2c-0.4,0-0.9-0.1-1.2-0.2
			c-0.4-0.1-0.7-0.4-1-0.7c-0.3-0.3-0.5-0.7-0.7-1.1c-0.2-0.4-0.3-1-0.3-1.6c0-0.5,0.1-1,0.2-1.5c0.2-0.4,0.4-0.8,0.7-1.1
			c0.3-0.3,0.7-0.6,1.1-0.8c0.4-0.2,0.9-0.3,1.5-0.3c0.6,0,1.1,0,1.6,0.1s0.8,0.2,1.1,0.2v6.5c0,1.1-0.3,1.9-0.9,2.4
			s-1.5,0.8-2.6,0.8c-0.5,0-0.9,0-1.3-0.1c-0.4-0.1-0.8-0.2-1.1-0.3l0.2-1.1c0.3,0.1,0.6,0.2,1,0.3c0.4,0.1,0.8,0.1,1.2,0.1
			c0.8,0,1.3-0.2,1.7-0.5c0.3-0.3,0.5-0.8,0.5-1.5V2542.3z M820.5,2536.9c-0.1,0-0.3-0.1-0.5-0.1c-0.2,0-0.5,0-0.9,0
			c-0.7,0-1.2,0.2-1.6,0.7c-0.4,0.5-0.6,1.1-0.6,1.8c0,0.4,0.1,0.8,0.2,1.1s0.3,0.5,0.4,0.7s0.4,0.3,0.6,0.4
			c0.2,0.1,0.5,0.1,0.7,0.1c0.3,0,0.7,0,1-0.1c0.3-0.1,0.5-0.2,0.7-0.3V2536.9z"/>
		<path class="st2" d="M826.4,2535.5c0.5,0,1,0.1,1.3,0.2c0.4,0.1,0.6,0.3,0.9,0.6c0.2,0.2,0.4,0.5,0.5,0.9s0.1,0.7,0.1,1.1v4.5
			c-0.1,0-0.3,0-0.5,0.1c-0.2,0-0.4,0.1-0.7,0.1s-0.5,0.1-0.8,0.1s-0.6,0-0.9,0c-0.4,0-0.8,0-1.1-0.1s-0.6-0.2-0.9-0.4
			s-0.4-0.4-0.6-0.7s-0.2-0.7-0.2-1.1c0-0.4,0.1-0.7,0.2-1c0.2-0.3,0.4-0.5,0.7-0.7c0.3-0.2,0.6-0.3,1-0.4c0.4-0.1,0.8-0.1,1.2-0.1
			c0.1,0,0.3,0,0.4,0c0.1,0,0.3,0,0.4,0.1s0.2,0,0.3,0.1s0.2,0,0.2,0v-0.4c0-0.2,0-0.4-0.1-0.6c0-0.2-0.1-0.4-0.3-0.6
			c-0.1-0.2-0.3-0.3-0.5-0.4c-0.2-0.1-0.5-0.1-0.8-0.1c-0.4,0-0.8,0-1.1,0.1c-0.3,0.1-0.6,0.1-0.7,0.2l-0.2-1.1
			c0.2-0.1,0.4-0.1,0.8-0.2C825.5,2535.6,826,2535.5,826.4,2535.5z M826.5,2542.1c0.3,0,0.6,0,0.8,0c0.2,0,0.4,0,0.6-0.1v-2.2
			c-0.1,0-0.2-0.1-0.5-0.1c-0.2,0-0.5,0-0.8,0c-0.2,0-0.4,0-0.6,0c-0.2,0-0.4,0.1-0.6,0.2c-0.2,0.1-0.3,0.2-0.5,0.4
			c-0.1,0.2-0.2,0.4-0.2,0.6c0,0.5,0.1,0.8,0.4,1C825.6,2542,826,2542.1,826.5,2542.1z"/>
		<path class="st2" d="M834.1,2535.6c0.1,0,0.2,0,0.4,0s0.3,0,0.4,0.1c0.1,0,0.3,0,0.4,0.1s0.2,0,0.3,0.1l-0.2,1.1
			c-0.1,0-0.3-0.1-0.5-0.1c-0.2-0.1-0.5-0.1-0.9-0.1c-0.2,0-0.5,0-0.7,0.1c-0.2,0.1-0.4,0.1-0.5,0.1v6.1h-1.3v-7
			c0.3-0.1,0.7-0.2,1.1-0.3C833,2535.6,833.5,2535.6,834.1,2535.6z"/>
		<path class="st2" d="M841.5,2532.4l1.3-0.2v10.7c-0.3,0.1-0.7,0.2-1.1,0.3s-1,0.1-1.6,0.1c-0.6,0-1.1-0.1-1.5-0.3
			c-0.4-0.2-0.8-0.4-1.1-0.8c-0.3-0.3-0.6-0.7-0.7-1.2c-0.2-0.5-0.3-1-0.3-1.6c0-0.6,0.1-1.1,0.2-1.5c0.1-0.5,0.4-0.9,0.6-1.2
			c0.3-0.3,0.6-0.6,1-0.8c0.4-0.2,0.9-0.3,1.4-0.3c0.4,0,0.8,0.1,1.1,0.2c0.3,0.1,0.6,0.2,0.7,0.3V2532.4z M841.5,2537.3
			c-0.2-0.1-0.4-0.3-0.7-0.4s-0.6-0.2-1-0.2c-0.4,0-0.7,0.1-1,0.2c-0.3,0.1-0.5,0.3-0.7,0.6s-0.3,0.5-0.4,0.8
			c-0.1,0.3-0.1,0.7-0.1,1.1c0,0.8,0.2,1.5,0.6,2s1,0.7,1.7,0.7c0.4,0,0.7,0,0.9,0c0.2,0,0.4-0.1,0.6-0.1V2537.3z"/>
		<path class="st2" d="M847.4,2535.5c0.5,0,1,0.1,1.3,0.2c0.4,0.1,0.6,0.3,0.9,0.6c0.2,0.2,0.4,0.5,0.5,0.9c0.1,0.3,0.1,0.7,0.1,1.1
			v4.5c-0.1,0-0.3,0-0.5,0.1c-0.2,0-0.4,0.1-0.7,0.1s-0.5,0.1-0.8,0.1s-0.6,0-0.9,0c-0.4,0-0.8,0-1.1-0.1c-0.3-0.1-0.6-0.2-0.9-0.4
			s-0.4-0.4-0.6-0.7s-0.2-0.7-0.2-1.1c0-0.4,0.1-0.7,0.2-1c0.2-0.3,0.4-0.5,0.7-0.7c0.3-0.2,0.6-0.3,1-0.4s0.8-0.1,1.2-0.1
			c0.1,0,0.3,0,0.4,0c0.1,0,0.3,0,0.4,0.1s0.2,0,0.3,0.1c0.1,0,0.2,0,0.2,0v-0.4c0-0.2,0-0.4-0.1-0.6c0-0.2-0.1-0.4-0.3-0.6
			c-0.1-0.2-0.3-0.3-0.5-0.4c-0.2-0.1-0.5-0.1-0.8-0.1c-0.4,0-0.8,0-1.1,0.1c-0.3,0.1-0.6,0.1-0.7,0.2l-0.2-1.1
			c0.2-0.1,0.4-0.1,0.8-0.2C846.5,2535.6,846.9,2535.5,847.4,2535.5z M847.5,2542.1c0.3,0,0.6,0,0.8,0c0.2,0,0.4,0,0.6-0.1v-2.2
			c-0.1,0-0.2-0.1-0.5-0.1c-0.2,0-0.5,0-0.8,0c-0.2,0-0.4,0-0.6,0c-0.2,0-0.4,0.1-0.6,0.2c-0.2,0.1-0.3,0.2-0.5,0.4
			c-0.1,0.2-0.2,0.4-0.2,0.6c0,0.5,0.2,0.8,0.4,1C846.6,2542,847,2542.1,847.5,2542.1z"/>
		<path class="st2" d="M862,2539.4c0,0.6-0.1,1.1-0.2,1.5s-0.4,0.9-0.6,1.2c-0.3,0.3-0.6,0.6-1,0.8s-0.9,0.3-1.4,0.3
			c-0.4,0-0.8-0.1-1.1-0.2c-0.3-0.1-0.6-0.2-0.7-0.3v2.9h-1.3v-9.6c0.3-0.1,0.7-0.2,1.2-0.2c0.5-0.1,1-0.1,1.6-0.1
			c0.6,0,1.1,0.1,1.5,0.3c0.4,0.2,0.8,0.4,1.1,0.8c0.3,0.3,0.6,0.7,0.7,1.2C861.9,2538.3,862,2538.8,862,2539.4z M860.6,2539.4
			c0-0.8-0.2-1.5-0.6-2s-1-0.7-1.7-0.7c-0.4,0-0.7,0-0.9,0c-0.2,0-0.4,0.1-0.5,0.1v4.6c0.2,0.1,0.4,0.3,0.7,0.4s0.6,0.2,1,0.2
			c0.4,0,0.7-0.1,1-0.2c0.3-0.1,0.5-0.3,0.7-0.6s0.3-0.5,0.4-0.8C860.6,2540.1,860.6,2539.7,860.6,2539.4z"/>
		<path class="st2" d="M866.5,2535.6c0.1,0,0.2,0,0.4,0s0.3,0,0.4,0.1c0.1,0,0.3,0,0.4,0.1s0.2,0,0.3,0.1l-0.2,1.1
			c-0.1,0-0.3-0.1-0.5-0.1c-0.2-0.1-0.5-0.1-0.9-0.1c-0.2,0-0.5,0-0.7,0.1c-0.2,0.1-0.4,0.1-0.5,0.1v6.1h-1.3v-7
			c0.3-0.1,0.7-0.2,1.1-0.3C865.4,2535.6,865.9,2535.6,866.5,2535.6z"/>
		<path class="st2" d="M869.9,2534.4c-0.2,0-0.4-0.1-0.6-0.2c-0.2-0.2-0.2-0.4-0.2-0.6c0-0.3,0.1-0.5,0.2-0.6
			c0.2-0.2,0.4-0.2,0.6-0.2s0.4,0.1,0.6,0.2c0.2,0.2,0.2,0.4,0.2,0.6c0,0.3-0.1,0.5-0.2,0.6S870.1,2534.4,869.9,2534.4z M870.5,2543
			h-1.3v-7.3h1.3V2543z"/>
		<path class="st2" d="M875.4,2539c0.3,0.2,0.6,0.5,0.9,0.8s0.6,0.7,0.9,1c0.3,0.4,0.6,0.7,0.9,1.1c0.3,0.4,0.5,0.7,0.7,1.1h-1.5
			c-0.2-0.3-0.4-0.7-0.7-1c-0.3-0.3-0.5-0.7-0.8-1c-0.3-0.3-0.6-0.6-0.9-0.9c-0.3-0.3-0.6-0.5-0.8-0.7v3.5h-1.3v-10.6l1.3-0.2v6.6
			c0.2-0.2,0.5-0.5,0.7-0.7c0.3-0.3,0.5-0.5,0.8-0.8c0.3-0.3,0.5-0.5,0.7-0.8c0.2-0.3,0.4-0.5,0.6-0.7h1.5c-0.2,0.2-0.4,0.5-0.7,0.8
			c-0.3,0.3-0.5,0.6-0.8,0.8c-0.3,0.3-0.5,0.6-0.8,0.9C875.9,2538.5,875.6,2538.7,875.4,2539z"/>
		<path class="st2" d="M882.3,2543.1c-0.8,0-1.4-0.2-1.7-0.5c-0.3-0.3-0.5-0.8-0.5-1.5v-8.7l1.3-0.2v8.8c0,0.2,0,0.4,0.1,0.5
			c0,0.1,0.1,0.3,0.2,0.3s0.2,0.1,0.3,0.2c0.1,0,0.3,0.1,0.5,0.1L882.3,2543.1z"/>
		<path class="st2" d="M886.2,2535.5c0.5,0,1,0.1,1.3,0.2c0.4,0.1,0.6,0.3,0.9,0.6c0.2,0.2,0.4,0.5,0.5,0.9s0.1,0.7,0.1,1.1v4.5
			c-0.1,0-0.3,0-0.5,0.1c-0.2,0-0.4,0.1-0.7,0.1s-0.5,0.1-0.8,0.1c-0.3,0-0.6,0-0.9,0c-0.4,0-0.8,0-1.1-0.1s-0.6-0.2-0.9-0.4
			s-0.4-0.4-0.6-0.7c-0.1-0.3-0.2-0.7-0.2-1.1c0-0.4,0.1-0.7,0.2-1c0.2-0.3,0.4-0.5,0.7-0.7c0.3-0.2,0.6-0.3,1-0.4s0.8-0.1,1.2-0.1
			c0.1,0,0.3,0,0.4,0c0.1,0,0.3,0,0.4,0.1c0.1,0,0.2,0,0.3,0.1s0.2,0,0.2,0v-0.4c0-0.2,0-0.4-0.1-0.6s-0.1-0.4-0.3-0.6
			s-0.3-0.3-0.5-0.4c-0.2-0.1-0.5-0.1-0.8-0.1c-0.4,0-0.8,0-1.1,0.1c-0.3,0.1-0.6,0.1-0.7,0.2l-0.2-1.1c0.2-0.1,0.4-0.1,0.8-0.2
			C885.4,2535.6,885.8,2535.5,886.2,2535.5z M886.4,2542.1c0.3,0,0.6,0,0.8,0c0.2,0,0.4,0,0.6-0.1v-2.2c-0.1,0-0.2-0.1-0.5-0.1
			c-0.2,0-0.5,0-0.8,0c-0.2,0-0.4,0-0.6,0c-0.2,0-0.4,0.1-0.6,0.2c-0.2,0.1-0.3,0.2-0.5,0.4s-0.2,0.4-0.2,0.6c0,0.5,0.1,0.8,0.4,1
			C885.4,2542,885.8,2542.1,886.4,2542.1z"/>
		<path class="st2" d="M897,2542.8c-0.3,0.1-0.7,0.2-1.2,0.2s-1.1,0.1-1.7,0.1c-0.6,0-1-0.1-1.4-0.2s-0.7-0.4-0.9-0.7
			s-0.4-0.7-0.5-1.1s-0.2-0.9-0.2-1.4v-4.1h1.3v3.8c0,0.9,0.1,1.5,0.4,1.9c0.3,0.4,0.8,0.6,1.4,0.6c0.1,0,0.3,0,0.4,0
			c0.1,0,0.3,0,0.4,0s0.2,0,0.4,0s0.2,0,0.2,0v-6.1h1.3V2542.8z"/>
		<path class="st2" d="M900.9,2542.1c0.5,0,0.9-0.1,1.2-0.2c0.3-0.1,0.4-0.4,0.4-0.7c0-0.3-0.1-0.6-0.4-0.8s-0.7-0.4-1.2-0.6
			c-0.3-0.1-0.5-0.2-0.8-0.3c-0.3-0.1-0.5-0.3-0.7-0.4c-0.2-0.2-0.3-0.3-0.4-0.6c-0.1-0.2-0.2-0.5-0.2-0.8c0-0.6,0.2-1.2,0.7-1.5
			c0.5-0.4,1.1-0.6,1.9-0.6c0.2,0,0.4,0,0.6,0c0.2,0,0.4,0.1,0.6,0.1c0.2,0,0.3,0.1,0.5,0.1c0.1,0,0.2,0.1,0.3,0.1l-0.2,1.1
			c-0.1-0.1-0.4-0.2-0.7-0.2s-0.7-0.1-1.1-0.1c-0.4,0-0.7,0.1-1,0.2c-0.3,0.1-0.4,0.4-0.4,0.7c0,0.2,0,0.3,0.1,0.4s0.2,0.2,0.3,0.3
			c0.1,0.1,0.3,0.2,0.5,0.3c0.2,0.1,0.4,0.2,0.7,0.3c0.3,0.1,0.7,0.3,0.9,0.4c0.3,0.1,0.5,0.3,0.7,0.4c0.2,0.2,0.3,0.4,0.4,0.6
			s0.2,0.5,0.2,0.9c0,0.7-0.2,1.2-0.7,1.5c-0.5,0.3-1.2,0.5-2.1,0.5c-0.6,0-1.1-0.1-1.5-0.2s-0.6-0.2-0.7-0.2l0.2-1.1
			c0.1,0.1,0.4,0.1,0.7,0.3C900,2542,900.4,2542.1,900.9,2542.1z"/>
		<path class="st2" d="M911.9,2539.4c0,0.6-0.1,1.1-0.3,1.6s-0.4,0.9-0.7,1.2s-0.7,0.6-1.1,0.8c-0.4,0.2-0.9,0.3-1.4,0.3
			s-1-0.1-1.4-0.3c-0.4-0.2-0.8-0.4-1.1-0.8s-0.5-0.7-0.7-1.2s-0.3-1-0.3-1.6c0-0.6,0.1-1.1,0.3-1.6c0.2-0.5,0.4-0.9,0.7-1.2
			s0.7-0.6,1.1-0.8c0.4-0.2,0.9-0.3,1.4-0.3s1,0.1,1.4,0.3c0.4,0.2,0.8,0.4,1.1,0.8s0.5,0.7,0.7,1.2
			C911.8,2538.3,911.9,2538.8,911.9,2539.4z M910.6,2539.4c0-0.8-0.2-1.5-0.6-2s-0.9-0.7-1.5-0.7s-1.1,0.2-1.5,0.7s-0.6,1.1-0.6,2
			s0.2,1.5,0.6,2c0.4,0.5,0.9,0.7,1.5,0.7s1.1-0.2,1.5-0.7C910.4,2540.8,910.6,2540.2,910.6,2539.4z"/>
	</g>
</g>
</svg>
