<svg xmlns="http://www.w3.org/2000/svg" width="168" height="204" viewBox="0 0 168 204"><g><g><path fill="#fff" d="M119.052 77.973c-.027.008-.06.029-.081.02-.025-.01-.038-.044-.057-.068l.13-.04.008.088zm-51.49 3.662l-.109-.2.694-.341.103.192zm30.26-26.439c3.854 2.741 5.895 4.047 10.844 7.568-4.924 4.253-7.931 9.292-11.793 12.63V54.136l.23.213zm16.17 13.611c1.502 3.353 2.66 6.098 3.947 8.783 4.926 10.285.297 18.773-5.053 27.124-5.4 8.427-11.157 16.646-16.156 25.304-5.379 9.317-10.128 19.001-15.022 28.592-3.938 7.717-7.682 15.534-11.357 22.991 12.134-37.98 26.699-75.393 43.641-112.794zm-33.48 31.253l-.007.008.006-.007.002-.001zm0 .001c-3.927 2.9-7.59 6.288-11.842 8.59-6.758 3.661-13.944.88-17.863-5.786-3.277-5.574-7.835-10.016-13.527-13.207-.311-.175-.624-.346-.922-.538-.176-.113-.324-.268-.647-.54 2.095-1.747 4.205-3.37 6.16-5.163 6.29-5.768 11.073-12.692 15.376-20.014 2.48-4.222 5.392-8.197 10.722-9.096.967-.163 2.545.006 2.953.617.586.875.71 2.397.403 3.463-.645 2.239-1.697 4.36-2.65 6.696l-.401-.892-3.15 4.326 1.237-.816c-1.831 2.676-3.604 5.086-5.175 7.62-1.153 1.858-2.234 3.812-2.964 5.86-.337.942-.12 2.54.512 3.24.592.657 2.348 1.055 3.1.652 4.489-2.41 8.835-5.088 12.953-7.512 0 .924-.222 2.88.043 4.767.768 5.463 5.039 7.417 9.739 4.462 2.72-1.71 5.286-3.666 8.462-5.263-1.756 3.275-3.265 6.716-5.335 9.777-2.107 3.113-4.767 5.854-7.185 8.757zm41.34-53.143l-8.442 18.695c-2.83-1.374-3.289-3.034-1.493-5.485 1.3-1.775 2.645-3.519 3.929-5.305.18-.254.128-.675-.323-1.238l-5.987 8.07c-3.496-2.465-7.066-4.982-11.486-8.096 2.186-1.104 3.671-2.169 5.325-2.626 3.956-1.095 7.992-1.905 11.996-2.83l-.008-.007zM70.668 79.744l.008.008m18.492-39.557c4.915 8.695 7.859 18.172 6.37 28.66-.194 1.37-.335 2.746-.55 4.111-.803 5.1-8.728 12.683-13.92 13.342-2.596.33-3.88-1.246-4.582-4.513-1.222-5.695 2.133-9.478 4.908-13.712 2.358-3.598 4.092-7.607 6.06-11.457.125-.246-.02-.76-.22-.992-.106-.123-.768-.02-.899.172-1.046 1.532-2.027 3.11-3.027 4.673l.718-.359L73.665 75.9c-3.68 2.419-7.334 4.883-11.071 7.212-.62.387-1.61.183-2.43.252-.039-.74-.381-1.654-.071-2.192 3.05-5.305 6.24-10.53 9.323-15.816 1.408-2.415 2.927-4.818 3.92-7.409 1.1-2.874-1.082-5.553-4.167-5.355-6.079.387-9.24 4.593-12.245 9.251-3.226 5-6.71 9.863-10.422 14.513-2.296 2.874-5.223 5.248-7.87 7.843 2.556-3.913 5.365-7.687 7.612-11.771 5.44-9.891 10.63-19.922 15.886-29.913.768-1.46 1.498-2.975 1.953-4.55.208-.723-.295-1.65-.475-2.486-.376.517-.85.988-1.114 1.556-2.532 5.457-4.705 11.11-7.608 16.36-4.765 8.616-9.969 16.993-15.05 25.433-1.499 2.49-3.038 4.997-4.909 7.2-.691.815-2.448 1.211-3.617 1.052-6.943-.95-13.507-2.862-18.211-8.598-.551-.672-.958-1.461-1.774-2.003-.778-1.22-1.597-2.418-2.33-3.665-3.799-6.475-3.01-18.29 2.246-24.067 8.192-9.008 17.525-16.196 29.434-19.588 4.388-1.249 8.676-3.202 13.142-3.74 5.284-.636 10.76-.507 16.056.118 2.728.321 5.245 2.436 7.857 3.74l-.008-.008 7.06 5.575.01-.007c.359.362.718.724 1.08 1.086l-.01-.008 1.668 2.036zM38.604 84.24l-.22.214-.023.022.02-.025.215-.219.035-.034-.027.042zm35.066-8.344l-.008.007.003-.004.005-.003zM12.506 92.572l-.215.218.008.007.216-.215c4.705-5.338 14.13-6.785 19.501-2.93-.287.433-.546.895-.873 1.303-5.455 6.807-10.827 13.685-16.42 20.375-2.832 3.387-6.06 6.442-9.166 9.591-.109.11-1.13-.3-1.204-.597-.355-1.416-.742-3.048-.98-4.493a1.678 1.678 0 0 0-.213-.011c-.51-1.477-1.723-3.723-1.692-4.742.234-7.727 5.419-12.68 10.187-17.852l-.008-.009M1.45 118.388a1.74 1.74 0 0 0 .016.587c.402 1.883.967 4.564 3.58 3.843 2.143-.592 4.391-2.072 5.814-3.8 7.632-9.275 15.01-18.757 22.533-28.121.266-.332 1.248-.431 1.7-.22 5.588 2.608 9.85 6.867 13.046 11.941 3.726 5.917 8.392 10.346 15.593 9.403 3.845-.504 7.68-2.838 11.02-5.087 7.082-4.767 12.533-11.157 16.662-18.67 2.473-4.503 3.247-9.819 7.88-13.316 3.896-2.94 6.94-7.01 10.64-10.874.74 1.247 2.648 3.078 2.281 4.07-2.139 5.784-4.895 11.336-7.283 17.033a3100.32 3100.32 0 0 0-14.1 34.138c-3.415 8.423-6.848 16.848-9.93 25.395-3.344 9.278-6.376 18.67-9.389 28.064-3.089 9.634-6.003 19.325-8.928 29.012-.152.503.315 1.194.493 1.798.432-.482 1.036-.893 1.271-1.456 4.222-10.147 8.183-20.41 12.66-30.44 3.15-7.06 6.906-13.857 10.54-20.693 5.048-9.492 10.022-19.035 15.422-28.327 5.162-8.88 11.03-17.351 16.193-26.231 2.819-4.848 3.475-10.398 1.458-15.77-1.607-4.284-3.86-8.325-5.779-12.496-.159-.345-.063-.907.101-1.287 2.66-6.131 5.309-12.267 8.085-18.345.328-.72 1.361-1.518 2.12-1.573 5.715-.42 11.44-.895 17.164-.905 8.004-.014 16.006.377 24.01.53.618.012 1.246-.493 1.87-.758-.384-.272-.764-.779-1.148-.782a4616.655 4616.655 0 0 0-36.143-.207c-2.125-.003-4.25.327-6.628.525 1.497-3.47 2.84-6.561 4.166-9.66 3.658-8.546 7.344-17.08 10.935-25.654.817-1.949 1.395-4.016 1.893-6.075.303-1.251.24-2.592.34-3.891-.551 1.197-1.14 2.38-1.647 3.596-2.234 5.368-4.414 10.758-6.669 16.117a3417.304 3417.304 0 0 1-10.27 24.145c-.278.647-.808 1.565-1.347 1.662-3.839.694-7.791.895-11.552 1.86-4.753 1.217-9.358 3.01-14.095 4.578l-.067-.198c-2.52-7.394-5.458-14.353-11.645-19.799-7.876-6.932-16.6-9.97-26.94-8.526-14.67 2.049-28.302 6.751-39.62 16.601C12.156 44.997 6.61 49.93 5.33 58.2c-1.147 7.413.439 13.909 4.712 19.58 2.578 3.423 6.419 5.894 9.403 8.533a6.864 6.864 0 0 0-.435.164c-8.469 3.547-13.568 10.43-17.903 18.076-2.131 3.76-1.047 9.021.343 13.835z"/></g></g></svg>