<?xml version="1.0" encoding="utf-8"?>
<!-- Generator: Adobe Illustrator 23.0.4, SVG Export Plug-In . SVG Version: 6.00 Build 0)  -->
<svg version="1.1" id="Layer_1" xmlns="http://www.w3.org/2000/svg" xmlns:xlink="http://www.w3.org/1999/xlink" x="0px" y="0px"
	 viewBox="0 0 284.9 62.3" style="enable-background:new 0 0 284.9 62.3;" xml:space="preserve">
<style type="text/css">
	.st0{fill:#ffffff;}
	.st1{fill:#ffffff;}
	.st2{opacity:0.3;}
</style>
<g>
	<g>
		<path class="st0" d="M0,0.2h21c7.3,0,16,1.6,20.7,7.8c3.4,4.3,4.3,10.1,4.3,15.2c0,15.8-8.8,22.8-25.1,22.8H0V0.2z M4.1,41.6H21
			c6.1,0,13.7-1.2,17.4-6c2.7-3.6,3.4-8.2,3.4-12.5c0-4.4-0.6-9-3.4-12.5c-3.7-4.8-11.3-6-17.4-6H4.1V41.6z"/>
	</g>
	<g>
		<path class="st0" d="M57.9,34.6c0,13.8-3.4,27.6-21.4,27.6c-18,0-21.2-14-21.2-27.6V16.5h4.1v18.1c0,6.3,0.9,15.5,5.8,19.8
			c3.2,2.8,7,3.6,11.4,3.6s8-0.8,11.3-3.6c5-4.3,5.8-13.6,5.8-19.8V16.5h4.2V34.6z"/>
	</g>
	<polyline class="st0" points="11.7,42.3 7.7,42.3 7.7,3.8 11.7,3.8 	"/>
	<polyline class="st0" points="19.4,42.3 15.3,42.3 15.3,3.8 19.4,3.8 	"/>
	<g>
		<path class="st1" d="M123.1,12.8c0,7.6-5,12.7-12.4,12.7h-9.3V0h9.3C118.1,0,123.1,5.1,123.1,12.8z M119.3,12.8
			c0-5.9-3.5-9.7-8.8-9.7H105v19.4h5.5C115.8,22.4,119.3,18.6,119.3,12.8z"/>
		<path class="st1" d="M143.1,19.6h-12.7l-2.5,5.9H124l11-25.5h3.4l11,25.5h-3.9L143.1,19.6z M141.8,16.5l-5.1-12l-5.1,12H141.8z"/>
		<path class="st1" d="M152.8,0h3.7v25.5h-3.7V0z"/>
		<path class="st1" d="M159.8,0h3.9l8.8,21l8.8-21h3.9l-11,25.5h-3.4L159.8,0z"/>
		<path class="st1" d="M202.4,19.6h-12.7l-2.5,5.9h-3.9l11-25.5h3.4l11,25.5h-3.9L202.4,19.6z M201.1,16.5l-5.1-12l-5.1,12H201.1z"
			/>
	</g>
	<g>
		<path class="st1" d="M101.4,52.5V36.4h3.6v16c0,4.1,2.9,6.8,7.2,6.8c4.2,0,7.1-2.8,7.1-6.8v-16h3.7v16.1c0,5.9-4.3,9.7-10.8,9.7
			S101.4,58.3,101.4,52.5z"/>
		<path class="st1" d="M144.5,58.8v3h-15.3V36.4h3.7v22.4H144.5z"/>
		<path class="st1" d="M167.3,54.6c0,4.3-3.4,7.2-8.5,7.2h-10.5V36.4h10.1c4.6,0,7.7,2.6,7.7,6.6c0,2.5-1.4,4.4-3.8,5.5
			C165.4,49.4,167.3,51.6,167.3,54.6z M152,47.3h5.6c2.8,0,4.7-1.6,4.7-3.9c0-2.3-1.9-3.9-4.8-3.9H152V47.3z M163.5,54.6
			c0-2.5-2-4.3-5-4.3H152v8.5h6.6C161.5,58.8,163.5,57.1,163.5,54.6z"/>
		<path class="st1" d="M172.2,36.4h3.7v25.5h-3.7V36.4z"/>
		<path class="st1" d="M182.4,36.4h2.3l16.9,19.2l-0.1-19.2h3.7v25.5h-2.3L186,42.6l0.1,19.2h-3.7V36.4z"/>
		<path class="st1" d="M227.6,55.9h-12.7l-2.5,5.9h-3.9l11-25.5h3.4l11,25.5h-3.9L227.6,55.9z M226.3,52.9l-5.1-12l-5.1,12H226.3z"
			/>
		<path class="st1" d="M237.3,36.4h3.7v25.5h-3.7V36.4z"/>
		<path class="st1" d="M264.4,39.4h-8v22.4h-3.7V39.4h-8v-3h19.7V39.4z"/>
		<path class="st1" d="M284.9,58.8v3h-16.7V36.4h16.5v3h-12.8v8h11.8v3h-11.8v8.4H284.9z M274.1,30.4c0-1.3,0.9-2.2,2.2-2.2
			c1.2,0,2.2,0.9,2.2,2.2s-0.9,2.2-2.2,2.2C275.1,32.6,274.1,31.6,274.1,30.4z"/>
	</g>
	<rect x="79.1" y="0" class="st2" width="0.7" height="62.2"/>
</g>
</svg>
