<?xml version="1.0" standalone="no"?>
<!DOCTYPE svg PUBLIC "-//W3C//DTD SVG 20010904//EN"
 "http://www.w3.org/TR/2001/REC-SVG-20010904/DTD/svg10.dtd">
<svg version="1.0" xmlns="http://www.w3.org/2000/svg"
 width="181.000000pt" height="181.000000pt" viewBox="0 0 181.000000 181.000000"
 preserveAspectRatio="xMidYMid meet">
<metadata>
Created by potrace 1.11, written by Peter Selinger 2001-2013
</metadata>
<g transform="translate(0.000000,181.000000) scale(0.100000,-0.100000)"
fill="#000000" stroke="none">
<path d="M0 1098 l0 -518 28 -1 c15 0 97 -1 183 -1 l156 0 22 -68 c52 -163
170 -269 328 -295 21 -3 74 -6 118 -6 238 1 383 113 447 348 19 70 22 111 26
383 l4 305 -42 -2 c-23 0 -44 -4 -48 -7 -3 -4 -7 -127 -8 -274 -1 -205 -6
-285 -19 -346 -48 -229 -165 -322 -391 -311 -94 4 -113 8 -170 35 -57 28 -118
99 -144 166 -11 30 -20 59 -20 64 0 6 31 10 68 10 81 0 202 29 275 65 173 87
253 285 222 551 -28 243 -182 382 -453 411 -32 3 -175 6 -320 7 l-262 1 0
-517z m168 407 c11 -10 8 -825 -3 -826 -5 0 -24 -2 -42 -3 l-32 -2 0 417 c-1
322 2 419 12 422 14 6 57 1 65 -8z m172 6 c7 -1 7 -831 0 -832 -8 -2 -43 -2
-60 -1 -13 2 -15 55 -15 414 0 444 -1 431 50 423 11 -2 22 -4 25 -4z m260 -5
c56 -4 181 -47 214 -73 94 -75 136 -191 130 -367 -7 -199 -74 -302 -232 -355
-33 -12 -84 -23 -114 -26 -128 -13 -139 -13 -148 4 -4 9 -9 199 -10 422 l-1
406 58 -3 c32 -2 78 -6 103 -8z"/>
<path d="M1795 1419 c-4 -6 -5 -12 -2 -15 2 -3 7 2 10 11 7 17 1 20 -8 4z"/>
<path d="M1795 779 c-4 -6 -5 -12 -2 -15 2 -3 7 2 10 11 7 17 1 20 -8 4z"/>
</g>
</svg>
